<svg xmlns="http://www.w3.org/2000/svg" width="20" height="20" viewBox="0 0 20 20" fill="none">
  <path d="M16.3333 2.00006H15.2778V1.00006C15.2778 0.734845 15.1666 0.480491 14.9686 0.292954C14.7707 0.105418 14.5022 6.10352e-05 14.2222 6.10352e-05C13.9423 6.10352e-05 13.6738 0.105418 13.4758 0.292954C13.2779 0.480491 13.1667 0.734845 13.1667 1.00006V2.00006H6.83333V1.00006C6.83333 0.734845 6.72212 0.480491 6.52417 0.292954C6.32621 0.105418 6.05773 6.10352e-05 5.77778 6.10352e-05C5.49783 6.10352e-05 5.22934 0.105418 5.03139 0.292954C4.83343 0.480491 4.72222 0.734845 4.72222 1.00006V2.00006H3.66667C2.82681 2.00006 2.02136 2.31613 1.4275 2.87874C0.83363 3.44135 0.5 4.20441 0.5 5.00006V17.0001C0.5 17.7957 0.83363 18.5588 1.4275 19.1214C2.02136 19.684 2.82681 20.0001 3.66667 20.0001H16.3333C17.1732 20.0001 17.9786 19.684 18.5725 19.1214C19.1664 18.5588 19.5 17.7957 19.5 17.0001V5.00006C19.5 4.20441 19.1664 3.44135 18.5725 2.87874C17.9786 2.31613 17.1732 2.00006 16.3333 2.00006ZM5.77778 15.0001C5.56901 15.0001 5.36493 14.9414 5.19134 14.8315C5.01776 14.7217 4.88246 14.5655 4.80257 14.3827C4.72268 14.2 4.70178 13.999 4.7425 13.805C4.78323 13.611 4.88377 13.4328 5.03139 13.293C5.17901 13.1531 5.36709 13.0579 5.57185 13.0193C5.77661 12.9807 5.98884 13.0005 6.18172 13.0762C6.3746 13.1519 6.53945 13.28 6.65544 13.4445C6.77143 13.6089 6.83333 13.8023 6.83333 14.0001C6.83333 14.2653 6.72212 14.5196 6.52417 14.7072C6.32621 14.8947 6.05773 15.0001 5.77778 15.0001ZM14.2222 15.0001H10C9.72005 15.0001 9.45156 14.8947 9.25361 14.7072C9.05565 14.5196 8.94444 14.2653 8.94444 14.0001C8.94444 13.7348 9.05565 13.4805 9.25361 13.293C9.45156 13.1054 9.72005 13.0001 10 13.0001H14.2222C14.5022 13.0001 14.7707 13.1054 14.9686 13.293C15.1666 13.4805 15.2778 13.7348 15.2778 14.0001C15.2778 14.2653 15.1666 14.5196 14.9686 14.7072C14.7707 14.8947 14.5022 15.0001 14.2222 15.0001ZM17.3889 9.00006H2.61111V5.00006C2.61111 4.73484 2.72232 4.48049 2.92028 4.29295C3.11823 4.10542 3.38672 4.00006 3.66667 4.00006H4.72222V5.00006C4.72222 5.26528 4.83343 5.51963 5.03139 5.70717C5.22934 5.8947 5.49783 6.00006 5.77778 6.00006C6.05773 6.00006 6.32621 5.8947 6.52417 5.70717C6.72212 5.51963 6.83333 5.26528 6.83333 5.00006V4.00006H13.1667V5.00006C13.1667 5.26528 13.2779 5.51963 13.4758 5.70717C13.6738 5.8947 13.9423 6.00006 14.2222 6.00006C14.5022 6.00006 14.7707 5.8947 14.9686 5.70717C15.1666 5.51963 15.2778 5.26528 15.2778 5.00006V4.00006H16.3333C16.6133 4.00006 16.8818 4.10542 17.0797 4.29295C17.2777 4.48049 17.3889 4.73484 17.3889 5.00006V9.00006Z" fill="#F4F6F8"/>
</svg>