<svg xmlns="http://www.w3.org/2000/svg" width="20" height="20" viewBox="0 0 20 20" fill="#FF571A">
    <path
        d="M15.2501 4.75843C14.9251 4.43343 14.4001 4.43343 14.0751 4.75843L10.0001 8.8251L5.9251 4.7501C5.6001 4.4251 5.0751 4.4251 4.7501 4.7501C4.4251 5.0751 4.4251 5.6001 4.7501 5.9251L8.8251 10.0001L4.7501 14.0751C4.4251 14.4001 4.4251 14.9251 4.7501 15.2501C5.0751 15.5751 5.6001 15.5751 5.9251 15.2501L10.0001 11.1751L14.0751 15.2501C14.4001 15.5751 14.9251 15.5751 15.2501 15.2501C15.5751 14.9251 15.5751 14.4001 15.2501 14.0751L11.1751 10.0001L15.2501 5.9251C15.5668 5.60843 15.5668 5.0751 15.2501 4.75843Z"
        fill="#FF571A" />
</svg>