<svg width="32" height="32" viewBox="0 0 32 32" fill="none" xmlns="http://www.w3.org/2000/svg">
    <rect width="32" height="32" rx="4" fill="#5A4F43"/>
    <path d="M11.8537 20.8902L11.3202 21.871C11.1407 22.0578 10.8492 22.0345 10.6699 21.8477L6.11779 16.8269C5.96074 16.6401 5.96074 16.3599 6.11779 16.1731L10.6699 11.1523C10.8494 10.9655 11.1409 10.9422 11.3202 11.129L11.8537 12.1098C12.0331 12.2967 12.0555 12.6003 11.8761 12.787L8.12863 16.5L11.8763 20.2129C12.0333 20.3997 12.0331 20.7034 11.8537 20.8902Z" fill="#EEA956"/>
    <path d="M25.8654 16.8269L21.3136 21.8477C21.1342 22.0345 20.8426 22.0578 20.6634 21.871L20.1463 20.8902C19.9669 20.7033 19.9445 20.3997 20.1239 20.213L23.8704 16.5L20.1455 12.787C19.9661 12.6001 19.9885 12.2965 20.1679 12.1098L20.6634 11.129C20.8428 10.9422 21.1343 10.9655 21.3136 11.1523L25.8654 16.1731C26.0449 16.36 26.0449 16.64 25.8654 16.8269Z" fill="#EEA956"/>
    <path d="M18.1309 22.6218L17.0915 22.9832C16.8276 23.0555 16.5637 22.8869 16.4917 22.6218L13.5167 10.9808C13.4448 10.7157 13.6126 10.4505 13.8765 10.3782L15.0442 10.0168C15.3082 9.9445 15.5721 10.1131 15.644 10.3782L18.4909 22.0192C18.5388 22.2842 18.3949 22.5495 18.1309 22.6218Z" fill="#EEA956"/>
    </svg>
    