<svg width="28" height="28" viewBox="0 0 28 28" fill="none" xmlns="http://www.w3.org/2000/svg">
    <rect width="28" height="28" rx="6" fill="#2C353D"/>
    <path d="M13.1605 5.29732C13.5545 4.68838 14.4455 4.68838 14.8395 5.29732L15.7217 6.66053C15.9789 7.05794 16.4795 7.22058 16.9211 7.05024L18.4361 6.46591C19.1128 6.2049 19.8336 6.72859 19.7945 7.45285L19.7069 9.07425C19.6814 9.54692 19.9908 9.97274 20.4482 10.0945L22.0173 10.5123C22.7182 10.6989 22.9935 11.5462 22.5362 12.1092L21.5123 13.3694C21.2138 13.7368 21.2138 14.2632 21.5123 14.6306L22.5362 15.8908C22.9935 16.4538 22.7182 17.3011 22.0173 17.4877L20.4482 17.9055C19.9908 18.0273 19.6814 18.4531 19.7069 18.9257L19.7945 20.5471C19.8336 21.2714 19.1128 21.7951 18.4361 21.5341L16.9211 20.9498C16.4795 20.7794 15.9789 20.9421 15.7217 21.3395L14.8395 22.7027C14.4455 23.3116 13.5545 23.3116 13.1605 22.7027L12.2783 21.3395C12.0211 20.9421 11.5205 20.7794 11.0789 20.9498L9.56389 21.5341C8.88716 21.7951 8.16637 21.2714 8.20549 20.5471L8.29306 18.9257C8.31859 18.4531 8.00922 18.0273 7.55179 17.9055L5.98269 17.4877C5.28178 17.3011 5.00646 16.4538 5.46383 15.8908L6.48771 14.6306C6.78619 14.2632 6.78619 13.7368 6.48771 13.3694L5.46382 12.1092C5.00646 11.5462 5.28178 10.6989 5.98269 10.5123L7.55179 10.0945C8.00922 9.97274 8.31859 9.54692 8.29306 9.07425L8.20549 7.45285C8.16637 6.72859 8.88716 6.2049 9.56389 6.46591L11.0789 7.05024C11.5205 7.22058 12.0211 7.05794 12.2783 6.66053L13.1605 5.29732Z" fill="#0ECC8D"/>
    <path d="M8.462 16V12.088H9.368L10.388 14.032L10.772 14.896H10.796C10.78 14.688 10.758 14.456 10.73 14.2C10.702 13.944 10.688 13.7 10.688 13.468V12.088H11.528V16H10.622L9.602 14.05L9.218 13.198H9.194C9.214 13.414 9.236 13.646 9.26 13.894C9.288 14.142 9.302 14.382 9.302 14.614V16H8.462ZM13.7122 16.072C13.4282 16.072 13.1722 16.01 12.9442 15.886C12.7162 15.762 12.5362 15.584 12.4042 15.352C12.2722 15.12 12.2062 14.84 12.2062 14.512C12.2062 14.188 12.2722 13.91 12.4042 13.678C12.5402 13.446 12.7162 13.268 12.9322 13.144C13.1482 13.016 13.3742 12.952 13.6102 12.952C13.8942 12.952 14.1282 13.016 14.3122 13.144C14.5002 13.268 14.6402 13.438 14.7322 13.654C14.8282 13.866 14.8762 14.108 14.8762 14.38C14.8762 14.456 14.8722 14.532 14.8642 14.608C14.8562 14.68 14.8482 14.734 14.8402 14.77H13.0582C13.0982 14.986 13.1882 15.146 13.3282 15.25C13.4682 15.35 13.6362 15.4 13.8322 15.4C14.0442 15.4 14.2582 15.334 14.4742 15.202L14.7682 15.736C14.6162 15.84 14.4462 15.922 14.2582 15.982C14.0702 16.042 13.8882 16.072 13.7122 16.072ZM13.0522 14.188H14.1262C14.1262 14.024 14.0862 13.89 14.0062 13.786C13.9302 13.678 13.8042 13.624 13.6282 13.624C13.4922 13.624 13.3702 13.672 13.2622 13.768C13.1542 13.86 13.0842 14 13.0522 14.188ZM15.9485 16L15.2045 13.024H16.0805L16.3685 14.404C16.3925 14.552 16.4145 14.698 16.4345 14.842C16.4545 14.986 16.4765 15.134 16.5005 15.286H16.5245C16.5525 15.134 16.5785 14.984 16.6025 14.836C16.6305 14.688 16.6625 14.544 16.6985 14.404L17.0285 13.024H17.7905L18.1265 14.404C18.1625 14.552 18.1945 14.698 18.2225 14.842C18.2545 14.986 18.2845 15.134 18.3125 15.286H18.3365C18.3645 15.134 18.3865 14.986 18.4025 14.842C18.4225 14.698 18.4465 14.552 18.4745 14.404L18.7565 13.024H19.5725L18.8585 16H17.8265L17.5565 14.812C17.5285 14.672 17.5005 14.532 17.4725 14.392C17.4485 14.252 17.4225 14.102 17.3945 13.942H17.3705C17.3425 14.102 17.3165 14.252 17.2925 14.392C17.2725 14.532 17.2485 14.672 17.2205 14.812L16.9565 16H15.9485Z" fill="white"/>
    </svg>
    