<svg width="28" height="28" viewBox="0 0 28 28" fill="none" xmlns="http://www.w3.org/2000/svg">
    <rect width="28" height="28" rx="6" fill="#2C353D"/>
    <path d="M10.7213 18.4503L13 20.8905C13.2261 21.1259 13.6402 20.9547 13.6402 20.6338V18.4718L15.4491 18.4717C16.4357 18.4717 17.2373 17.6372 17.2373 16.6102L17.2375 8.86147C17.2375 7.83447 16.4358 7 15.4492 7H5.78827C4.80165 7 4 7.83447 4 8.86147V16.5888C4 17.6158 4.80165 18.4503 5.78827 18.4503L10.7213 18.4503ZM8.11094 11.4291L9.71424 11.3007L10.3309 9.73882C10.4542 9.43927 10.8448 9.43927 10.9476 9.73882L11.5643 11.3007L13.1676 11.4291C13.4759 11.4504 13.5994 11.8357 13.3526 12.0495L12.1192 13.1407L12.5098 14.7668C12.5919 15.0664 12.2632 15.3231 11.9959 15.1519L10.6187 14.2746L9.24151 15.1519C8.97425 15.3231 8.66597 15.0663 8.72763 14.7668L9.11822 13.1407L7.88483 12.0495C7.67922 11.857 7.80252 11.4506 8.11094 11.4291ZM19.5602 10.1025C19.108 10.1025 18.7381 9.71747 18.7381 9.24675C18.7381 8.77602 19.108 8.39096 19.5602 8.39096H23.1779C23.6301 8.39096 24 8.77602 24 9.24675C24 9.71747 23.6301 10.1025 23.1779 10.1025H19.5602ZM18.7585 12.6488C18.7585 12.178 19.1285 11.793 19.5807 11.793H22.2529C22.7051 11.793 23.075 12.178 23.075 12.6488C23.075 13.1195 22.7051 13.5046 22.2529 13.5046H19.5602C19.108 13.5046 18.7585 13.1195 18.7585 12.6488ZM18.7585 16.0508C18.7585 15.5801 19.1285 15.195 19.5807 15.195H21.2046C21.6568 15.195 22.0267 15.5801 22.0267 16.0508C22.0267 16.5215 21.6568 16.9066 21.2046 16.9066H19.5601C19.1079 16.9066 18.7585 16.5215 18.7585 16.0508Z" fill="#EEA956"/>
    </svg>
    