<svg xmlns="http://www.w3.org/2000/svg" width="16" height="16" viewBox="0 0 16 16"><path fill="#fff" fill-rule="evenodd" d="m7.493.015l-.386.04c-1.873.187-3.76 1.153-5.036 2.579C.66 4.211-.057 6.168.009 8.253c.115 3.601 2.59 6.65 6.101 7.518a8.034 8.034 0 0 0 6.117-.98a8 8 0 0 0 3.544-4.904c.172-.701.212-1.058.212-1.887s-.04-1.186-.212-1.887C14.979 2.878 12.315.498 9 .064C8.716.027 7.683-.006 7.493.015m1.36 1.548a6.519 6.519 0 0 1 3.091 1.271c.329.246.976.893 1.222 1.222c.561.751.976 1.634 1.164 2.479a6.766 6.766 0 0 1 0 2.93c-.414 1.861-1.725 3.513-3.463 4.363a6.76 6.76 0 0 1-1.987.616c-.424.065-1.336.065-1.76 0c-1.948-.296-3.592-1.359-4.627-2.993a7.502 7.502 0 0 1-.634-1.332A6.158 6.158 0 0 1 1.514 8c0-1.039.201-1.925.646-2.84c.34-.698.686-1.18 1.253-1.747A5.956 5.956 0 0 1 5.16 2.16a6.452 6.452 0 0 1 3.693-.597M7.706 4.29c-.224.073-.351.201-.413.415c-.036.122-.04.401-.034 2.111c.008 1.97.008 1.971.066 2.08a.687.687 0 0 0 .346.308c.132.046.526.046.658 0a.687.687 0 0 0 .346-.308c.058-.109.058-.11.066-2.08c.008-2.152.008-2.154-.145-2.335c-.124-.148-.257-.197-.556-.205a1.705 1.705 0 0 0-.334.014m.08 6.24a.858.858 0 0 0-.467.402a.849.849 0 0 0-.025.563A.777.777 0 0 0 8 12c.303 0 .612-.22.706-.505a.849.849 0 0 0-.025-.563a.948.948 0 0 0-.348-.352c-.116-.06-.429-.089-.547-.05"/></svg>